<svg
  xmlns="http://www.w3.org/2000/svg"
  xmlns:xlink="http://www.w3.org/1999/xlink"
  width="17px" height="17px">
  <path fill-rule="evenodd"  fill="rgb(51, 51, 51)"
        d="M12.155,10.747 L11.397,10.747 L11.133,10.486 C12.064,9.401 12.630,7.996 12.630,6.456 C12.630,3.032 9.851,0.257 6.424,0.257 C2.996,0.257 0.218,3.032 0.218,6.456 C0.218,9.879 2.996,12.654 6.424,12.654 C7.965,12.654 9.373,12.090 10.458,11.160 L10.721,11.422 L10.721,12.177 L15.494,16.937 L16.917,15.515 L12.155,10.747 ZM6.424,10.747 C4.051,10.747 2.127,8.826 2.127,6.456 C2.127,4.085 4.051,2.164 6.424,2.164 C8.797,2.164 10.720,4.085 10.720,6.456 C10.720,8.826 8.797,10.747 6.424,10.747 Z"/>
</svg>
